<svg xmlns="http://www.w3.org/2000/svg" version="1.1" xmlns:xlink="http://www.w3.org/1999/xlink" xmlns:svgjs="http://svgjs.com/svgjs" width="512px" height="512px"><svg xmlns="http://www.w3.org/2000/svg" width="512px" height="512px" viewBox="0 -150 512 512" version="1.1" preserveAspectRatio="xMidYMid">
  <polygon fill="#f9ac00" id="SvgjsPolygon1002" points="112.41683,137.48922 152.9767,96.93226 152.9767,162.31513 175.23756,162.31513 175.23756,43.192494 112.41796,106.00759 49.901449,43.48657 49.901449,162.97925 72.162319,162.97925 72.162319,97.231807 "></polygon>
  <polygon fill="#000000" id="SvgjsPolygon1001" points="303.87853,93.920837 319.61875,109.66223 261.97675,167.29994 203.60786,108.93104 219.34867,93.190232 250.43359,124.27501 250.43478,40.20313 272.69565,40.20313 272.69446,125.09867 "></polygon>
  <polygon fill="#808080" id="SvgjsPolygon1000" points="416.4378,99.539478 462.13671,145.23972 446.39616,160.9808 400.69565,115.28162 354.99514,160.9808 339.2546,145.23972 384.9498,99.539478 337.80393,52.39228 353.54447,36.651199 400.69565,83.797333 447.84683,36.651199 463.58737,52.39228 "></polygon>
</svg><style>@media (prefers-color-scheme: light) { :root { filter: none; } }
@media (prefers-color-scheme: dark) { :root { filter: contrast(1) brightness(1); } }
</style></svg>