<?xml version="1.0" encoding="UTF-8" standalone="no"?>
<svg
   xmlns="http://www.w3.org/2000/svg"
   version="1.1"
   width="512px"
   height="512px">
  <polygon
     fill="#f9ac00"
     points="152.9767,96.93226 152.9767,162.31513 175.23756,162.31513 175.23756,43.192494 112.41796,106.00759 49.901449,43.48657 49.901449,162.97925 72.162319,162.97925 72.162319,97.231807 112.41683,137.48922 "
     transform="matrix(0.98202905,0,0,0.99495727,-3.0046726,153.54371)" />
  <path
     fill="#f9ac00"
     d="m 255.26976,229.56072 q 0,6.34146 -2.47067,12.18227 -2.47069,5.84082 -6.42378,11.34787 -3.95308,5.34017 -8.89444,10.34659 -4.94137,5.00641 -9.71802,9.51218 -2.47067,2.33633 -5.43549,5.34017 -2.80011,2.83697 -5.4355,5.84082 -2.63539,3.00384 -4.77665,5.67393 -1.97654,2.5032 -2.47067,4.17202 h 49.08417 v 20.86004 h -76.09695 q -0.32942,-1.83569 -0.32942,-4.67265 0,-2.83697 0,-4.00513 0,-8.01026 2.47068,-14.68548 2.63539,-6.67522 6.7532,-12.34915 4.11779,-5.84081 9.22386,-10.84722 5.27079,-5.00642 10.37687,-10.01282 3.95308,-3.83826 7.41203,-7.17587 3.45896,-3.50448 6.09434,-6.67521 2.6354,-3.33761 4.11781,-6.50834 1.48241,-3.33761 1.48241,-6.67521 0,-7.34274 -4.1178,-10.34659 -4.1178,-3.00385 -10.21214,-3.00385 -4.44723,0 -8.40032,1.50193 -3.78837,1.33504 -7.08262,3.3376 -3.12953,1.83569 -5.43549,3.83825 -2.30597,1.83569 -3.45895,3.00385 l -12.18869,-17.35556 q 7.24732,-6.8421 16.80062,-11.18099 9.71801,-4.50577 20.75371,-4.50577 10.04744,0 17.29476,2.33633 7.24734,2.33632 11.85927,6.67521 4.77665,4.17201 6.9179,10.34659 2.30597,6.00769 2.30597,13.68419 z" />
  <polygon
     points="303.87853,93.920837 319.61875,109.66223 261.97675,167.29994 203.60786,108.93104 219.34867,93.190232 250.43359,124.27501 250.43478,40.20313 272.69565,40.20313 272.69446,125.09867 "
     transform="matrix(0.98202905,0,0,0.99495727,51.988954,153.54371)"
     fill="#000000" />
  <polygon
     points="400.69565,115.28162 354.99514,160.9808 339.2546,145.23972 384.9498,99.539478 337.80393,52.39228 353.54447,36.651199 400.69565,83.797333 447.84683,36.651199 463.58737,52.39228 416.4378,99.539478 462.13671,145.23972 446.39616,160.9808 "
     transform="matrix(0.98202905,0,0,0.99495727,10.743734,155.53362)"
     fill="#cccccc" />
</svg>
